<?xml version="1.0" encoding="UTF-8" standalone="no"?>
<!DOCTYPE svg PUBLIC "-//W3C//DTD SVG 1.1//EN" "http://www.w3.org/Graphics/SVG/1.1/DTD/svg11.dtd">
<svg width="100%" height="100%" viewBox="0 0 5000 5000" version="1.1" xmlns="http://www.w3.org/2000/svg" xmlns:xlink="http://www.w3.org/1999/xlink" xml:space="preserve" xmlns:serif="http://www.serif.com/" style="fill-rule:evenodd;clip-rule:evenodd;stroke-miterlimit:10;">
    <g transform="matrix(1.317099,0,0,1.29049,-792.878885,-768.196332)">
        <path d="M2500,789C1556.2,789 791.8,1553.4 791.8,2497.2C791.8,3253.1 1280.8,3891.5 1959.8,4117.9C2045.2,4132.8 2077.2,4081.6 2077.2,4036.8C2077.2,3996.2 2075.1,3861.7 2075.1,3718.6C1645.9,3797.6 1534.9,3614 1500.7,3517.9C1481.5,3468.8 1398.2,3317.2 1325.6,3276.6C1265.8,3244.6 1180.4,3165.6 1323.5,3163.4C1458,3161.3 1554.1,3287.2 1586.1,3338.5C1739.8,3596.9 1985.4,3524.3 2083.6,3479.4C2098.5,3368.4 2143.4,3293.6 2192.5,3250.9C1812.4,3208.2 1415.3,3060.9 1415.3,2407.5C1415.3,2221.7 1481.5,2068 1590.4,1948.4C1573.3,1905.7 1513.5,1730.6 1607.5,1495.7C1607.5,1495.7 1750.6,1450.9 2077.3,1670.8C2214,1632.4 2359.2,1613.1 2504.4,1613.1C2649.6,1613.1 2794.8,1632.3 2931.5,1670.8C3258.2,1448.7 3401.3,1495.7 3401.3,1495.7C3495.3,1730.6 3435.5,1905.7 3418.4,1948.4C3527.3,2068 3593.5,2219.6 3593.5,2407.5C3593.5,3063 3194.2,3208.2 2814.1,3250.9C2876,3304.3 2929.4,3406.8 2929.4,3566.9C2929.4,3795.4 2927.3,3979 2927.3,4036.7C2927.3,4081.5 2959.3,4134.9 3044.7,4117.8C3719.4,3891.5 4208.4,3250.9 4208.4,2497.1C4208.2,1553.4 3443.8,789 2500,789Z" style="fill:white;fill-rule:nonzero;"/>
    </g>
    <g transform="matrix(1.709402,0,0,1.724931,1627.350427,1598.050828)">
        <path d="M803,175.05L539.43,491.27L360.3,491.27L360.3,488.11L417.06,419.96L621.18,175.05L803,175.05Z" style="fill:none;fill-rule:nonzero;stroke:white;stroke-width:45px;"/>
        <path d="M777.7,870.73L610.11,870.73L420.69,633.88L382.43,586.14L550.03,586.14L777.7,870.73Z" style="fill:none;fill-rule:nonzero;stroke:white;stroke-width:45px;"/>
        <path d="M360.3,175.05L360.3,488.11L357.61,491.27L331.52,522.58L278.56,586.14L218,658.86L218,175.05L360.3,175.05Z" style="fill:none;fill-rule:nonzero;stroke:white;stroke-width:45px;"/>
    </g>
</svg>
